<svg xmlns="http://www.w3.org/2000/svg" version="1.1" xmlns:xlink="http://www.w3.org/1999/xlink" xmlns:svgjs="http://svgjs.dev/svgjs" width="100%" height="100%" preserveAspectRatio="none" viewBox="0 0 1920 1080">
    <g mask="url(&quot;#SvgjsMask1026&quot;)" fill="none">
        <path d="M1791.7206225419154 947.877628425599L1714.0983740640343 755.7558216853826 1521.976567323818 833.3780701632636 1599.598815801699 1025.49987690348z" fill="rgba(28, 83, 142, 0.4)" class="triangle-float2"></path>
        <path d="M1003.377,793.622C1077.344,794.113,1157.139,775.757,1193.324,711.243C1228.97,647.69,1203.513,569.953,1162.682,509.601C1127.073,456.968,1066.872,427.918,1003.377,430.481C944.195,432.869,897.756,472.347,864.887,521.62C826.628,578.973,786.468,647.31,817.749,708.748C850.835,773.732,930.457,793.138,1003.377,793.622" fill="rgba(28, 83, 142, 0.4)" class="triangle-float3"></path>
        <path d="M1411.009,1094.741C1456.094,1096.538,1496.232,1068.155,1518.949,1029.17C1541.834,989.896,1548.034,940.157,1523.31,902.014C1500.185,866.338,1453.509,863.766,1411.009,862.649C1365.505,861.453,1311.215,856.677,1287.993,895.828C1264.553,935.346,1292.845,982.042,1317.012,1021.12C1339.448,1057.399,1368.387,1093.042,1411.009,1094.741" fill="rgba(28, 83, 142, 0.4)" class="triangle-float1"></path>
        <path d="M1350.9333744360385 142.13096611894122L1080.9826866602662 104.19187113044953 1043.0435916717743 374.142558906222 1312.994279447547 412.08165389471367z" fill="rgba(28, 83, 142, 0.4)" class="triangle-float1"></path>
        <path d="M249.67868621441733 506.7727228693651L463.96863975543806 625.8226970588211 463.968639755438 411.5327435178003z" fill="rgba(28, 83, 142, 0.4)" class="triangle-float3"></path>
    </g>
    <defs>
        <mask id="SvgjsMask1026">
            <rect width="1920" height="1080" fill="#ffffff"></rect>
        </mask>
    </defs>
</svg>